<svg width="24" height="24" viewBox="0 0 24 24" fill="none" xmlns="http://www.w3.org/2000/svg">
<path d="M12 14.8599C12.4667 14.8599 12.8352 14.4818 12.8352 14.0381V5.8776L12.7697 4.66133L13.2445 5.27768L14.3171 6.4282C14.4645 6.59256 14.6692 6.67474 14.8739 6.67474C15.2751 6.67474 15.6108 6.37889 15.6108 5.95978C15.6108 5.74611 15.5289 5.58175 15.3815 5.43382L12.6468 2.79585C12.4258 2.58218 12.2211 2.5 12 2.5C11.7789 2.5 11.566 2.58218 11.3532 2.79585L8.61845 5.43382C8.46288 5.58175 8.381 5.74611 8.381 5.95978C8.381 6.37889 8.7167 6.67474 9.1179 6.67474C9.3226 6.67474 9.53548 6.59256 9.67467 6.4282L10.7555 5.27768L11.2303 4.66133L11.1567 5.8776V14.0381C11.1567 14.4818 11.5333 14.8599 12 14.8599ZM7.27566 21.5H16.7243C18.542 21.5 19.5 20.5385 19.5 18.7388V10.7344C19.5 8.93469 18.542 7.97318 16.7243 7.97318H14.5546V9.8058H16.5688C17.2811 9.8058 17.6741 10.1756 17.6741 10.9234V18.5497C17.6741 19.3058 17.2811 19.6674 16.5688 19.6674H7.43122C6.7107 19.6674 6.32587 19.3058 6.32587 18.5497V10.9234C6.32587 10.1756 6.7107 9.8058 7.43122 9.8058H9.46998V7.97318H7.27566C5.46616 7.97318 4.5 8.93469 4.5 10.7344V18.7388C4.5 20.5467 5.46616 21.5 7.27566 21.5Z" fill="black"/>
</svg>

